# xmcd
# 
# Track frame offsets:
#     150
#     18619
#     36558
#     49041
#     92760
#     109654
#     130077
#     157480
#     173555
# 
# Disc length: 2585
# 
# Revision: 1
# Processed by: cddbd v1.5.2PL0 Copyright (c) Steve Scherf et al.
# Submitted via: fre:ac v1.0.31
# 
DISCID=770a1709
DTITLE=Goliath - Goliath
DYEAR=1971
DGENRE=Progressive Rock
TTITLE0=Port and Lemon Lady
TTITLE1=Festival of Light
TTITLE2=No More Trash
TTITLE3=Hunter's Song
TTITLE4=Men
TTITLE5=I Heard About a Friend
TTITLE6=Prism
TTITLE7=Emerge, Breathe, Sunshine, Dandelion
TTITLE8=Maajun (A Taste of Tangier)
EXTD=
EXTT0=
EXTT1=
EXTT2=
EXTT3=
EXTT4=
EXTT5=
EXTT6=
EXTT7=
EXTT8=
PLAYORDER=
